<?xml version="1.0" encoding="utf-8"?>
<!-- Generator: Adobe Illustrator 21.0.2, SVG Export Plug-In . SVG Version: 6.00 Build 0)  -->
<svg version="1.1" id="Слой_1" xmlns="http://www.w3.org/2000/svg" xmlns:xlink="http://www.w3.org/1999/xlink" x="0px" y="0px"
	 viewBox="0 0 175.7 120.9" style="enable-background:new 0 0 175.7 120.9;" xml:space="preserve">
<style type="text/css">
	.st0{clip-path:url(#SVGID_2_);fill:#F0F1F8;}
	.st1{clip-path:url(#SVGID_2_);fill:#FFFFFF;}
	.st2{clip-path:url(#SVGID_2_);fill:#6F36FF;}
	.st3{clip-path:url(#SVGID_2_);fill:#2B265E;}
	.st4{clip-path:url(#SVGID_2_);fill:#E7E6E6;}
	.st5{clip-path:url(#SVGID_2_);fill:#8C94C9;}
	.st6{clip-path:url(#SVGID_2_);fill:#97D3F1;}
	.st7{clip-path:url(#SVGID_2_);fill:#29275C;}
</style>
<g>
	<defs>
		<rect id="SVGID_1_" width="175.7" height="120.9"/>
	</defs>
	<clipPath id="SVGID_2_">
		<use xlink:href="#SVGID_1_"  style="overflow:visible;"/>
	</clipPath>
	<path class="st0" d="M87.8,0c33.4,0,60.5,27.1,60.5,60.5s-27.1,60.5-60.5,60.5S27.4,93.8,27.4,60.5S54.4,0,87.8,0"/>
	<path class="st1" d="M104.2,7.5H69.3c-6.9,0-16.2-1.7-22.3,1.6c-2.1,1.1-1,3.8-1,5.9v93.8h83.6V31.1
		C129.6,31.1,109.1,7.5,104.2,7.5"/>
	<path class="st2" d="M106.6,48.5c-5.7-11.3-19.4-15.9-30.7-10.3c-1.4,0.7-2.6,1.5-3.8,2.4c-6.1,7.7-8.1,16.1-4.4,25.3
		c3.7,9.3,10.9,14.2,20.9,15.4c-0.3,0.1-0.4,0.2-0.5,0.2c-1.1,0-2.2,0.1-3.3,0.1c-0.2,0-0.4,0-0.6,0.1c12.6,1.2,23.8-8.1,24.9-20.7
		C109.3,56.7,108.5,52.4,106.6,48.5"/>
	<path class="st1" d="M88.5,81.5c0.1,0,0.2-0.1,0.5-0.2c-10-1.2-17.2-6.1-20.9-15.4c-3.6-9.2-1.7-17.6,4.4-25.3
		C64,47.3,61.3,59.2,66.2,69c2.5,4.9,6.6,8.8,11.7,10.9c0.2,0,0.5,0.1,0.6,0.3c1.9,0.7,4,1.2,6,1.4c0.2,0,0.4-0.1,0.6-0.1
		C86.3,81.5,87.4,81.5,88.5,81.5"/>
	<path class="st3" d="M20.1,73.3c0.9-0.4,1.3-1.4,0.9-2.3c0,0,0-0.1-0.1-0.1c-0.4-0.9-1.5-1.3-2.4-0.9c0,0-0.1,0-0.1,0
		c-0.9,0.3-1.3,1.3-0.9,2.1c0,0.1,0.1,0.2,0.1,0.3c0.3,0.8,1.2,1.3,2.1,1C19.9,73.4,20,73.3,20.1,73.3"/>
	<path class="st4" d="M156.2,75.4c0.9,0,1.7,0.8,1.7,1.7c0,0.9-0.8,1.7-1.7,1.7c-1,0-1.7-0.8-1.7-1.7
		C154.5,76.2,155.3,75.4,156.2,75.4"/>
	<path class="st5" d="M174,54.6c0.9,0,1.7,0.8,1.7,1.7c0,1-0.8,1.7-1.7,1.7c-1,0-1.7-0.8-1.7-1.7C172.3,55.4,173,54.6,174,54.6"/>
	<path class="st5" d="M159.6,29c0.9,0,1.7,0.8,1.7,1.7c0,1-0.8,1.7-1.7,1.7c-1,0-1.7-0.8-1.7-1.7C157.9,29.8,158.7,29,159.6,29"/>
	<path class="st4" d="M21.1,27.6c0.9,0,1.7,0.8,1.7,1.7c0,1-0.8,1.7-1.7,1.7c-1,0-1.7-0.8-1.7-1.7C19.3,28.3,20.1,27.6,21.1,27.6"/>
	<path class="st6" d="M1.7,54.6c0.9,0,1.7,0.8,1.7,1.7c0,1-0.8,1.7-1.7,1.7S0,57.3,0,56.3C0,55.4,0.8,54.6,1.7,54.6"/>
	<path class="st1" d="M40.2,69.7c0.2,0.1,0.5,0.2,0.7,0.3C40.7,69.8,40.5,69.7,40.2,69.7"/>
	<path class="st3" d="M43.9,107.1v-5.2c0-0.8-0.1-1.5-0.1-2.3V42c0-0.7,0-1.5,0.2-2.2c0.1-0.9,0.9-1.7,1.8-1.7
		c1,0.1,1.8,0.8,1.9,1.8c0,0.5,0,1,0,1.5v65.1c1.2,0.3,78.4,0.4,80.4,0.1V32.9c-0.5,0-1.1-0.1-1.6-0.1h-15.7c-0.6,0-1.3,0-1.9-0.2
		c-1.7-0.3-3.1-1.7-3.3-3.5c-0.2-0.8-0.3-1.7-0.2-2.5c0-5.3,0-10.6,0-15.8V9.1c-0.7,0-1.1-0.1-1.7-0.1H51.8c-2.1,0-3.3,0.8-3.9,2.4
		c-0.1,0.5-0.2,1.1-0.2,1.6v13.1c0,0.5,0,0.9-0.1,1.4C47.5,28.3,46.8,29,46,29c-0.9,0.2-1.7-0.4-2-1.3c-0.2-0.6-0.3-1.3-0.2-1.9
		c0-4.5,0.2-9.1,0.2-13.6c0.2-3.9,3.3-7,7.2-7.1c4.1-0.1,8.2,0,12.4,0c14.3,0,28.6,0,42.9,0c1.1-0.1,2.1,0.4,2.8,1.2
		c7.3,7.8,14.6,15.5,21.9,23.3c0.6,0.7,0.9,1.5,0.9,2.4c0,4.4,0,8.8,0,13.1V107c0.4,0.1,0.8,0.1,1.2,0.1h7.7c0.4,0,0.8,0,1.2,0
		c0.8,0.1,1.5,0.8,1.6,1.6c0.1,0.8-0.4,1.6-1.2,1.9c-0.5,0.1-1,0.2-1.5,0.2H32.6c-0.4,0-0.7,0-1.1-0.1c-0.9-0.2-1.6-1-1.5-2
		c0.1-0.9,0.8-1.6,1.7-1.7c0.4,0,0.7,0,1.1,0h9.5C42.7,107.1,43.2,107.1,43.9,107.1"/>
	<path class="st7" d="M109,58.8c0-6-2.4-11.8-6.8-16c-3.8-3.8-8.8-6-14.1-6.3c-12.1-0.9-22.7,7.9-23.9,19.9c-0.4,4.1,0.2,8.3,2,12
		c0.2,0.5,0.3,1,0.3,1.6c-0.1,0.8-0.8,1.5-1.6,1.5c-0.8,0.1-1.6-0.4-1.9-1.2c-0.8-1.8-1.4-3.7-2-5.7c-3.3-13.9,5.3-27.9,19.1-31.3
		c8.3-2.3,17.3-0.2,23.7,5.6c4.7,3.9,7.8,9.4,8.7,15.4c1.4,7.9-0.9,15.9-6.2,21.9c-3.8,4.4-9,7.4-14.8,8.5
		c-6.1,1.2-12.4,0.2-17.8-2.8c-0.8-0.3-1.4-1.1-1.4-2c0-1,0.7-1.9,1.7-1.9c0.3,0,0.5,0,0.7,0.1c0.3,0.1,0.6,0.3,0.9,0.5
		c3.3,1.7,6.9,2.6,10.6,2.7c10.9,0.2,20.3-7.5,22.3-18.2C108.8,61.6,108.9,60.2,109,58.8"/>
	<path class="st7" d="M47.9,33.8c0,1.1-0.8,1.9-1.9,2c-1,0-1.9-0.8-2-1.8c0-1,0.8-1.9,1.8-2.1C46.9,32,47.8,32.8,47.9,33.8"/>
	<path class="st7" d="M70.4,75.2c0,1-0.8,1.9-1.8,1.9c0,0,0,0-0.1,0c-1-0.1-1.8-0.8-1.9-1.8c0-1,0.8-1.9,1.8-2
		C69.5,73.3,70.4,74.1,70.4,75.2"/>
	<path class="st7" d="M149.4,108.8c-0.1,1-0.9,1.9-2,1.9c-1.1-0.1-1.9-1-1.8-2.1c0.1-1,0.8-1.7,1.8-1.8
		C148.5,106.9,149.3,107.8,149.4,108.8"/>
	<path class="st1" d="M93.4,57.9c-1.3,1-3.2,1-4.5-0.1c-1.4,1-3.3,1-4.6,0c-1.3,1-3.2,1-4.6,0c-0.2,0.1-0.3,0.2-0.5,0.3
		c-1.7,0.9-3.8,0.3-4.7-1.4c-0.3-0.5-0.4-1-0.4-1.5v-0.2c0-1.9-0.2-1.3,1-2.8c1-1.2,2-2.5,3-3.7c0.3-0.5,0.9-0.8,1.5-0.7
		c4.6,0,9.3,0,13.9,0c0.8-0.1,1.6,0.3,2,1c1,1.4,2.1,2.7,3.1,4.1c0.3,0.4,0.5,0.8,0.5,1.3c0,0.4,0,0.8,0,1.1
		c-0.1,1.9-1.8,3.4-3.7,3.3c-0.4-0.1-0.8-0.2-1.2-0.4C93.9,58.1,93.7,58,93.4,57.9 M86.6,49.8h-6.5c-0.3,0-0.6,0.1-0.8,0.4
		c-0.9,1.1-1.7,2.3-2.6,3.3c-0.5,0.6-0.6,1.3-0.4,2.1c0.1,0.5,0.5,0.9,1,0.9c0.6,0.1,1.2-0.1,1.6-0.7c0.2-0.5,0.9-0.7,1.4-0.5
		c0.2,0.1,0.4,0.2,0.5,0.4c0.1,0.1,0.1,0.2,0.2,0.2c0.2,0.2,0.4,0.3,0.6,0.4c0.7,0.3,1.6,0,2-0.6c0.2-0.4,0.7-0.6,1.2-0.5
		c0.3,0.1,0.5,0.3,0.7,0.5c0.5,0.8,1.6,0.9,2.3,0.4c0.2-0.1,0.3-0.2,0.4-0.4c0.3-0.5,0.9-0.7,1.4-0.4c0.2,0.1,0.3,0.3,0.4,0.4
		c0.5,0.8,1.6,0.9,2.4,0.4c0.2-0.1,0.3-0.3,0.4-0.4c0.3-0.5,0.9-0.7,1.4-0.4c0.2,0.1,0.3,0.2,0.4,0.4c0.1,0.1,0.1,0.2,0.2,0.2
		c0.4,0.6,0.9,0.5,1.5,0.4c0.5-0.1,0.9-0.5,0.9-1c0-0.3,0-0.6,0-0.8c0-0.3-0.1-0.7-0.3-0.9c-0.9-1.1-1.8-2.3-2.7-3.5
		c-0.2-0.3-0.5-0.4-0.9-0.4C90.9,49.8,88.8,49.8,86.6,49.8L86.6,49.8z"/>
	<path class="st1" d="M90.8,67.6h4.2c0-0.2,0-0.3,0-0.5v-6.9c0.1-0.6,0.6-1,1.1-0.9c0.5,0.1,0.9,0.4,0.9,0.9v0.4c0,2.6,0,5.2,0,7.8
		c0.1,0.7-0.4,1.3-1.1,1.4c-0.1,0-0.2,0-0.3,0c-6.1,0-12.1,0-18.2,0c-0.7,0.1-1.3-0.4-1.3-1.1c0-0.1,0-0.2,0-0.3c0-2.6,0-5.2,0-7.8
		v-0.3c0-0.5,0.4-0.9,0.9-0.9c0.5,0,1,0.3,1.1,0.8c0,0.2,0,0.3,0,0.5v7h4.2c0-0.2,0-0.4,0-0.5c0-1.8,0-3.6,0-5.4
		c-0.1-0.7,0.4-1.3,1.1-1.3c0.1,0,0.2,0,0.2,0c1.9,0,3.8,0,5.7,0c1,0,1.3,0.3,1.3,1.3v5.2C90.8,67.1,90.8,67.4,90.8,67.6 M84.5,62.4
		v5.2h4.1v-5.2L84.5,62.4z"/>
	<path class="st1" d="M86.6,55.1h-8.2c-0.2,0-0.5,0-0.7-0.1c-0.4-0.2-0.6-0.6-0.5-1.1c0.1-0.4,0.4-0.7,0.8-0.8c0.2,0,0.3,0,0.5,0
		h16.5c0.5,0,0.9,0.5,0.9,1c0,0.5-0.4,1-0.9,1c-0.2,0-0.3,0-0.5,0C91.9,55.1,89.3,55.1,86.6,55.1L86.6,55.1z"/>
	<path class="st3" d="M70.5,92.9c-0.2,0-0.3-0.1-0.5-0.1c-0.2,0-0.5-0.1-0.8-0.1c-0.6-0.1-1.3-0.2-2-0.3c-0.2,0-0.4-0.2-0.5-0.4
		c-0.3-0.7-0.7-1.4-1-2.1l-0.4-0.8c-0.1-0.3-0.4-0.5-0.7-0.5c-0.3,0-0.6,0.3-0.7,0.6l-0.5,0.9c-0.3,0.6-0.6,1.3-1,2
		c-0.1,0.2-0.2,0.3-0.4,0.3c-0.9,0.1-1.9,0.3-3.2,0.5c-0.3,0-0.5,0.2-0.7,0.4c-0.3,0.4,0.1,0.8,0.2,0.9l0.1,0.1
		c0.1,0.1,0.2,0.2,0.3,0.3l0.5,0.5c0.5,0.5,0.9,0.9,1.4,1.4c0.2,0.1,0.2,0.3,0.2,0.5c-0.1,0.6-0.2,1.1-0.3,1.7l0,0.2
		c-0.1,0.3-0.1,0.7-0.2,1l-0.1,0.5v0c0,0.2,0.1,0.5,0.3,0.6c0.2,0.1,0.4,0.1,0.6,0.1c0.1,0,0.2-0.1,0.3-0.2l0.1,0
		c0.2-0.1,0.5-0.2,0.7-0.4c0.6-0.3,1.3-0.7,1.9-1c0.2-0.2,0.5-0.2,0.7,0c0.6,0.4,1.3,0.7,1.9,1c0.2,0.1,0.5,0.2,0.7,0.4l0.1,0
		c0.1,0.1,0.2,0.1,0.3,0.2c0.1,0,0.2,0.1,0.3,0.1c0.3,0,0.6-0.3,0.6-0.6c0,0,0-0.1,0-0.1c0-0.1,0-0.2,0-0.2v-0.1
		c-0.1-0.3-0.1-0.6-0.2-0.8c-0.1-0.7-0.2-1.4-0.4-2.1c-0.1-0.3,0-0.6,0.3-0.8c0.8-0.7,1.4-1.4,2.2-2.2c0.3-0.3,0.3-0.6,0.3-0.8
		C71.1,93.1,70.8,93,70.5,92.9 M66.8,96.7c0.1,0.6,0.2,1.2,0.3,1.8l0.1,0.4l-0.2-0.1c-0.5-0.3-1.1-0.6-1.6-0.9c-0.3-0.2-0.7-0.2-1,0
		l-1.4,0.7l-0.5,0.2c0,0,0,0-0.1,0c0-0.1,0-0.2,0-0.2l0.1-0.4c0.1-0.5,0.2-0.9,0.3-1.4c0.1-0.4,0-0.8-0.3-1.1
		c-0.4-0.4-0.8-0.8-1.2-1.1l-0.3-0.3c0.4-0.1,0.7-0.1,1.1-0.2c0.3-0.1,0.7-0.1,1-0.2c0.4,0,0.7-0.3,0.8-0.6c0.2-0.5,0.5-1,0.7-1.5
		l0.2-0.4v0l0.1,0.2c0.1,0.2,0.2,0.3,0.2,0.5c0.2,0.4,0.4,0.8,0.6,1.3c0.2,0.4,0.5,0.6,0.9,0.7c0.6,0.1,1.2,0.2,1.8,0.3l0.2,0
		l-0.3,0.2c-0.4,0.4-0.9,0.8-1.3,1.3C66.8,96,66.7,96.4,66.8,96.7"/>
	<path class="st3" d="M85.5,93.1c-0.2,0-0.3-0.1-0.5-0.1c-0.2,0-0.5-0.1-0.8-0.1c-0.6-0.1-1.3-0.2-2-0.3c-0.2,0-0.4-0.2-0.5-0.4
		c-0.3-0.7-0.7-1.4-1-2.1l-0.4-0.8c-0.1-0.3-0.4-0.5-0.7-0.5h0c-0.3,0-0.6,0.3-0.7,0.6l-0.5,1c-0.3,0.6-0.6,1.3-1,1.9
		c-0.1,0.2-0.2,0.3-0.4,0.3c-0.9,0.1-1.9,0.3-3.2,0.5c-0.3,0-0.5,0.2-0.7,0.4c-0.3,0.4,0.1,0.8,0.2,0.9l0.1,0.1l0.3,0.3l0.5,0.5
		c0.5,0.5,0.9,0.9,1.4,1.4c0.2,0.1,0.2,0.3,0.2,0.5c-0.1,0.5-0.2,1.1-0.3,1.7l-0.1,0.3c-0.1,0.3-0.1,0.7-0.2,1l-0.1,0.5v0
		c0,0.2,0.1,0.5,0.3,0.6c0.2,0.1,0.4,0.1,0.6,0.1c0.1,0,0.2-0.1,0.3-0.2l0.1,0c0.2-0.1,0.5-0.2,0.7-0.4c0.6-0.3,1.3-0.7,1.9-1
		c0.2-0.2,0.5-0.2,0.7,0c0.6,0.4,1.3,0.7,1.9,1c0.2,0.1,0.5,0.2,0.7,0.4l0.1,0c0.1,0.1,0.2,0.1,0.3,0.2c0.1,0,0.2,0.1,0.3,0.1
		c0.3,0,0.6-0.3,0.6-0.6c0,0,0-0.1,0-0.1c0-0.1,0-0.2,0-0.2v-0.1c-0.1-0.3-0.1-0.6-0.2-0.8c-0.1-0.7-0.2-1.4-0.4-2.1
		c-0.1-0.3,0-0.6,0.3-0.8c0.8-0.7,1.5-1.4,2.2-2.2c0.3-0.3,0.3-0.6,0.3-0.8C86.1,93.4,85.9,93.2,85.5,93.1 M81.7,96.9
		c0.1,0.6,0.2,1.2,0.3,1.8L82,99l-0.2-0.1c-0.5-0.3-1.1-0.6-1.6-0.9c-0.3-0.2-0.7-0.2-1,0l-1.4,0.7l-0.5,0.2c0,0,0,0-0.1,0
		c0-0.1,0-0.2,0-0.2l0.1-0.4c0.1-0.5,0.2-0.9,0.3-1.4c0.1-0.4,0-0.8-0.3-1.1c-0.4-0.4-0.8-0.8-1.2-1.1l-0.3-0.3
		c0.4-0.1,0.7-0.1,1.1-0.2c0.4-0.1,0.7-0.1,1-0.2c0.4,0,0.7-0.3,0.8-0.6c0.2-0.5,0.5-1,0.7-1.5l0.2-0.4v0l0.1,0.2
		c0.1,0.2,0.2,0.3,0.2,0.5c0.2,0.4,0.4,0.8,0.6,1.3c0.2,0.4,0.5,0.6,0.9,0.7c0.6,0.1,1.2,0.2,1.8,0.3l0.2,0l-0.3,0.3
		c-0.4,0.4-0.8,0.8-1.3,1.2C81.7,96.2,81.6,96.5,81.7,96.9L81.7,96.9z"/>
	<path class="st3" d="M100.3,92.9c-0.2,0-0.3-0.1-0.5-0.1c-0.2,0-0.5-0.1-0.8-0.1c-0.6-0.1-1.3-0.2-2-0.3c-0.2,0-0.4-0.2-0.5-0.4
		c-0.3-0.7-0.7-1.4-1-2.1l-0.4-0.7c-0.1-0.3-0.4-0.5-0.7-0.5c-0.3,0-0.6,0.3-0.7,0.6l-0.5,0.9c-0.3,0.6-0.7,1.3-1,2
		c-0.1,0.2-0.2,0.3-0.4,0.3c-0.9,0.1-1.9,0.3-3.2,0.5c-0.3,0-0.5,0.2-0.7,0.4c-0.3,0.4,0.1,0.8,0.2,0.9l0.1,0.1
		c0.1,0.1,0.2,0.2,0.3,0.3l0.5,0.5c0.5,0.5,0.9,0.9,1.4,1.4c0.2,0.1,0.2,0.3,0.2,0.5c-0.1,0.6-0.2,1.1-0.3,1.7l0,0.2
		c-0.1,0.3-0.1,0.7-0.2,1l-0.1,0.5v0c0,0.2,0.1,0.5,0.3,0.6c0.2,0.1,0.4,0.1,0.6,0.1c0.1,0,0.2-0.1,0.3-0.2l0.1,0
		c0.2-0.1,0.5-0.2,0.7-0.4c0.6-0.3,1.3-0.7,1.9-1c0.2-0.2,0.5-0.2,0.7,0c0.6,0.3,1.2,0.7,1.9,1l0.7,0.4l0.1,0
		c0.1,0.1,0.2,0.1,0.3,0.2c0.1,0,0.2,0.1,0.3,0.1c0.3,0,0.6-0.3,0.6-0.6c0,0,0-0.1,0-0.1c0-0.1,0-0.2,0-0.2v-0.1
		c-0.1-0.3-0.1-0.6-0.2-0.8c-0.1-0.7-0.2-1.4-0.4-2.1c-0.1-0.3,0-0.6,0.3-0.8c0.8-0.7,1.4-1.4,2.2-2.2c0.3-0.3,0.3-0.6,0.3-0.8
		C100.8,93.2,100.6,93,100.3,92.9 M96.5,96.7c0.1,0.6,0.2,1.2,0.3,1.8l0.1,0.4l-0.2-0.1c-0.5-0.3-1.1-0.6-1.6-0.9
		c-0.3-0.2-0.7-0.2-1,0l-1.4,0.7l-0.5,0.2c0,0,0,0-0.1,0c0-0.1,0-0.2,0-0.2l0.1-0.4c0.1-0.5,0.2-0.9,0.2-1.4c0.1-0.4,0-0.8-0.3-1.1
		c-0.4-0.4-0.8-0.8-1.2-1.1l-0.3-0.3c0.4-0.1,0.7-0.1,1.1-0.2s0.7-0.1,1-0.2c0.4,0,0.7-0.3,0.8-0.6c0.2-0.5,0.5-1,0.7-1.5l0.2-0.4v0
		l0.1,0.2c0.1,0.2,0.2,0.3,0.2,0.5c0.2,0.4,0.4,0.8,0.6,1.2c0.2,0.4,0.5,0.6,0.9,0.7c0.6,0.1,1.2,0.2,1.8,0.3l0.2,0L98,94.5
		c-0.4,0.4-0.9,0.8-1.3,1.3C96.5,96,96.4,96.4,96.5,96.7"/>
	<path class="st3" d="M115.5,93.4c-0.1-0.3-0.4-0.4-0.6-0.5c-0.2,0-0.3-0.1-0.5-0.1c-0.2,0-0.5-0.1-0.8-0.1c-0.6-0.1-1.3-0.2-2-0.3
		c-0.2,0-0.4-0.2-0.5-0.4c-0.3-0.7-0.7-1.4-1-2.1l-0.4-0.7c-0.1-0.3-0.4-0.5-0.7-0.5c-0.3,0-0.6,0.3-0.7,0.6l-0.5,0.9
		c-0.3,0.6-0.6,1.3-1,2c-0.1,0.2-0.2,0.3-0.4,0.3c-0.9,0.1-1.9,0.3-3.2,0.5c-0.3,0-0.5,0.2-0.7,0.4c-0.3,0.4,0.1,0.8,0.2,0.9
		l0.1,0.1l0.3,0.3l0.5,0.5c0.5,0.5,0.9,0.9,1.4,1.4c0.2,0.1,0.2,0.3,0.2,0.5c-0.1,0.6-0.2,1.1-0.3,1.7l0,0.3c-0.1,0.3-0.1,0.7-0.2,1
		l-0.1,0.5v0c0,0.2,0.1,0.5,0.3,0.6c0.2,0.1,0.4,0.1,0.6,0.1c0.1,0,0.2-0.1,0.3-0.2l0.1,0c0.2-0.1,0.5-0.2,0.7-0.4
		c0.6-0.3,1.3-0.7,1.9-1c0.2-0.2,0.5-0.2,0.7,0c0.6,0.3,1.2,0.7,1.9,1l0.7,0.4l0.1,0c0.1,0.1,0.2,0.1,0.3,0.2c0.1,0,0.2,0.1,0.3,0.1
		c0.3,0,0.6-0.3,0.6-0.6c0,0,0-0.1,0-0.1c0-0.1,0-0.2,0-0.2v-0.1c-0.1-0.3-0.1-0.6-0.2-0.8c-0.1-0.7-0.2-1.4-0.4-2.1
		c-0.1-0.3,0-0.6,0.3-0.8c0.8-0.7,1.4-1.4,2.2-2.2C115.5,94,115.6,93.7,115.5,93.4 M111.1,96.7c0.1,0.6,0.2,1.2,0.3,1.8l0.1,0.4
		l-0.2-0.1c-0.5-0.3-1.1-0.6-1.6-0.9c-0.3-0.2-0.7-0.2-1,0l-1.4,0.7l-0.5,0.2c0,0,0,0-0.1,0c0-0.1,0-0.2,0-0.2l0.1-0.4
		c0.1-0.5,0.2-0.9,0.2-1.4c0.1-0.4,0-0.8-0.3-1.1c-0.4-0.4-0.8-0.8-1.2-1.1l-0.3-0.3c0.4-0.1,0.7-0.1,1.1-0.2c0.3-0.1,0.7-0.1,1-0.2
		c0.4,0,0.7-0.3,0.8-0.6c0.2-0.5,0.5-1,0.7-1.5l0.2-0.4v0l0.1,0.2c0.1,0.2,0.1,0.3,0.2,0.5c0.2,0.4,0.4,0.8,0.6,1.3
		c0.2,0.4,0.5,0.6,0.9,0.7c0.6,0.1,1.2,0.2,1.8,0.3l0.2,0l-0.2,0.2c-0.4,0.4-0.9,0.8-1.3,1.3C111.1,96,111,96.4,111.1,96.7
		L111.1,96.7z"/>
</g>
</svg>
