<?xml version="1.0" encoding="utf-8"?>
<!-- Generator: Adobe Illustrator 21.0.2, SVG Export Plug-In . SVG Version: 6.00 Build 0)  -->
<svg version="1.1" id="Слой_1" xmlns="http://www.w3.org/2000/svg" xmlns:xlink="http://www.w3.org/1999/xlink" x="0px" y="0px"
	 viewBox="0 0 126 126.5" style="enable-background:new 0 0 126 126.5;" xml:space="preserve">
<style type="text/css">
	.st0{clip-path:url(#SVGID_2_);fill:#F0F1F8;}
	.st1{clip-path:url(#SVGID_2_);fill:#FFFFFF;}
	.st2{clip-path:url(#SVGID_2_);fill:#2B265E;}
	.st3{clip-path:url(#SVGID_2_);fill:#6F36FF;}
	.st4{clip-path:url(#SVGID_2_);}
	.st5{clip-path:url(#SVGID_2_);fill:#E7E6E6;}
	.st6{clip-path:url(#SVGID_2_);fill:#8C94C9;}
	.st7{clip-path:url(#SVGID_2_);fill:#97D3F1;}
</style>
<g>
	<defs>
		<rect id="SVGID_1_" y="0" width="126" height="126.5"/>
	</defs>
	<clipPath id="SVGID_2_">
		<use xlink:href="#SVGID_1_"  style="overflow:visible;"/>
	</clipPath>
	<path class="st0" d="M63.3,0C97.9,0,126,28.1,126,62.7c0,34.6-28.1,62.7-62.7,62.7S0.6,97.4,0.6,62.7C0.6,28.1,28.7,0,63.3,0"/>
	<path class="st1" d="M74.4,86.6c-3.6,1.5-7.3,1.2-11.4,1.2H18.8c-2.4,0-5.6,0.6-7.8-0.4c-2.4-1.2-4.5-2.8-6.3-4.8
		c-3.6-4-2.3-11.1-2.3-16.1V21.7C2.5,15.9-1,1.5,8,1.5h56.5c2.3,0,7-1.1,8.6,0.8c2.8,3.3,1.9,8.1,1.9,12.3v43.8
		c0,5.5-0.8,11.7,0.4,17c1.2-0.4,2.5-0.5,3.7-0.1c0.2,0.1,3.1,1.5,3.1,1c-0.5,3.6-2.5,6.8-5.5,8.9C76,85.8,75.2,86.2,74.4,86.6"/>
	<path class="st2" d="M115.1,87.1c-5.2-3.3-11.6-4.1-17.5-2.2c-1.2,0.3-2,1-1.7,2.4c0.3,1.2,1.3,1.6,2.8,1.3
		c0.6-0.2,1.3-0.3,2.3-0.6c-0.1,0-0.1,0.1-0.2,0.1c1-0.2,2.1-0.3,3.1-0.3c9.6-0.1,17.5,7.7,17.5,17.3c0.1,9.6-7.7,17.5-17.3,17.5
		c-0.1,0-0.2,0-0.3,0c-1.2,0-2.4-0.1-3.5-0.3h-0.2c-5.1-1.1-9.4-4.4-11.7-9c-2.3-4.4-2.6-9.5-0.9-14.1c0-0.1,0-0.2,0.1-0.2
		c0.6-1.6,0.3-2.6-0.9-3.1c-1.1-0.4-2.1,0.1-2.7,1.7c-1.4,3.6-1.8,7.5-1.1,11.2c2,11.6,13,19.3,24.6,17.3c11.6-2,19.3-13,17.3-24.6
		C123.9,95.5,120.3,90.3,115.1,87.1L115.1,87.1z"/>
	<path class="st2" d="M81.3,73.9c-1.7,0-3.3,0-5.1,0V28.2c0-2.2-0.5-3.1-1.8-3.1c-1.3-0.1-1.9,0.9-1.9,3.1v45.7H25.7
		c-2.3,0-2.6,0.3-2.9,2.7c-0.8,6.2-6,9.6-12,8.3c-4-0.9-6.5-4.3-7-9c-0.1-1.3-0.6-2.2-2-2.1c-1.4,0.1-1.8,1.1-1.7,2.3
		c0.2,6.2,4.6,11.4,10.7,12.6c2.2,0.2,4.3,0.2,6.5,0.1H69c0.9,0,1.8,0,2.7-0.1c6.4-0.4,11.9-6.1,11.9-12.4
		C83.6,74.6,83.1,73.9,81.3,73.9 M75.5,83.5c-1.8,1-3.8,1.5-5.8,1.4c-13.9,0-44.7,0.1-46.1-0.1c0.7-0.7,1.2-1.6,1.7-2.4
		c0.8-1.4,1.5-2.8,2-4.4c0,0,0-0.7,0.5-0.7c5.2-0.2,35.7,0.3,49.8,0.3h2.2C79.1,80.1,77.6,82.2,75.5,83.5L75.5,83.5z"/>
	<path class="st2" d="M0.3,58.8c0,2.3,0.5,3.2,1.8,3.2c1.4,0.1,2-0.8,2-3.2V7c0-2.5,0.4-3,2.5-3h63.1c2.2,0,2.8,0.7,2.9,2.9
		c0,2.2,0,4.4,0,6.6c0,1.3,0.5,2.2,1.9,2.1c1.3,0,1.8-0.9,1.8-2.1V6.8c0-4.2-2.3-6.5-6.6-6.5H38.1c-10.6,0-21.2,0-31.8,0.1
		c-1.3,0-2.6,0.4-3.8,1.1C0.7,2.7,0.3,4.6,0.3,6.7C0.3,24.1,0.3,41.5,0.3,58.8"/>
	<path class="st2" d="M59.6,55.4c0.6,0,1.3,0.1,1.7-0.2c0.6-0.4,1.3-1.2,1.2-1.7c-0.1-0.6-0.8-1.3-1.4-1.7c-0.3-0.2-0.8-0.1-1.2-0.1
		H17.8c-0.4,0-1-0.1-1.2,0.1c-0.6,0.4-1.3,1.1-1.3,1.6c0.1,0.7,0.5,1.4,1.2,1.8c0.6,0.2,1.2,0.3,1.8,0.2L59.6,55.4L59.6,55.4z"/>
	<path class="st2" d="M17.6,61.5c-1.7,0-2.6,0.8-2.5,1.9c0.2,1.5,1.2,1.8,2.5,1.8c3.9,0,7.8,0,11.7,0h11.7c1.3,0.1,2.3-0.4,2.4-1.8
		c0.1-1.1-0.8-1.9-2.4-1.9C33.2,61.5,25.4,61.5,17.6,61.5"/>
	<path class="st2" d="M1.9,69.9c1,0.1,1.8-0.7,1.9-1.7c0-0.1,0-0.1,0-0.2c0.1-1-0.7-1.9-1.7-1.9c-0.1,0-0.1,0-0.2,0
		c-1-0.1-1.8,0.6-1.9,1.6C0,67.9,0,68,0,68c-0.1,0.9,0.6,1.8,1.5,1.9C1.6,69.9,1.7,69.9,1.9,69.9"/>
	<path class="st2" d="M74.2,18.6c-0.9-0.1-1.8,0.6-1.9,1.5c0,0.1,0,0.2,0,0.3c0,1,0.8,1.9,1.8,1.9c1,0,1.9-0.8,1.9-1.8
		c0.1-0.9-0.5-1.8-1.5-1.9C74.5,18.6,74.3,18.6,74.2,18.6"/>
	<path class="st2" d="M92.9,91c-0.1-1.2-0.7-1.9-1.8-1.9c-1,0-1.9,0.8-1.9,1.8c0,1,0.8,1.9,1.8,1.9c0.5,0,0.9-0.1,1.3-0.4l0,0
		C92.6,91.9,92.8,91.5,92.9,91"/>
	<path class="st1" d="M96.7,108.1c1.4,1.3,2.9,2.6,4.4,3.8c0.7,0.7,1.9,0.7,2.6,0c0.1-0.1,0.1-0.1,0.2-0.2c2.9-3.6,5.8-7.2,8.6-10.9
		c0.7-0.7,0.6-1.9-0.1-2.5c-0.1-0.1-0.2-0.2-0.3-0.2c-0.8-0.7-2-0.5-2.7,0.3c-0.3,0.3-0.5,0.6-0.8,1c-2.1,2.7-4.3,5.4-6.5,8.2
		c-1-0.8-1.9-1.6-2.8-2.3c-0.8-0.8-2.1-0.7-2.8,0.1c-0.8,0.8-0.7,2.1,0.1,2.8C96.6,108,96.7,108,96.7,108.1L96.7,108.1z"/>
	<path class="st1" d="M88.5,113.3c2.4,4.6,6.8,8,11.9,9h0.3c-9.4-5-13-16.7-8-26.2c1.8-3.4,4.6-6.2,8.1-8c-3.2,0.6-6.1,2-8.5,4.2
		l0,0c-2.1,1.9-3.7,4.2-4.6,6.9C86,103.8,86.4,108.9,88.5,113.3"/>
	<path class="st3" d="M100.8,122.3h-0.3c1.2,0.2,2.3,0.3,3.5,0.3c9.6-0.1,17.3-7.9,17.3-17.5c-0.1-9.5-7.8-17.2-17.3-17.3
		c-1,0-2.1,0.1-3.1,0.3c-9.5,4.9-13.1,16.6-8.2,26.1C94.5,117.6,97.4,120.4,100.8,122.3 M99.4,105.1c0.9,0.7,1.8,1.5,2.8,2.3
		c2.3-2.8,4.4-5.5,6.5-8.2c0.3-0.3,0.5-0.7,0.8-1c0.7-0.8,1.9-0.9,2.7-0.3c0.9,0.5,1.1,1.6,0.6,2.5c-0.1,0.1-0.1,0.2-0.2,0.3
		c-2.8,3.7-5.7,7.3-8.6,10.9c-0.6,0.8-1.8,1-2.6,0.4c-0.1,0-0.1-0.1-0.2-0.2c-1.5-1.2-3-2.5-4.4-3.8c-0.8-0.7-0.9-2-0.2-2.8
		C97.2,104.4,98.5,104.3,99.4,105.1C99.3,105,99.3,105.1,99.4,105.1L99.4,105.1z"/>
	<path class="st4" d="M88.5,113.3c-2.2-4.4-2.5-9.5-0.9-14.1C85.9,103.8,86.3,108.9,88.5,113.3"/>
	<path class="st4" d="M92.3,92.3L92.3,92.3L92.3,92.3z"/>
	<path class="st2" d="M61.6,24.2v-0.8c0.1-0.8-0.4-1.6-1.2-1.8c-0.8-0.2-1.6,0.1-1.9,0.8c-0.9,1.2-2.1,2.2-3.4,2.9
		c-2.6,1.5-5.4,2.6-8.3,3.6c-8.5,2.9-17.3,4.8-27.1,6.7c-1,0.2-2,0.4-3.1,0.6l-1.8,0.4l0,0.3c0,0.2,0,0.3-0.1,0.5
		c0,0.2-0.1,0.5-0.1,0.8v6.1c0,1.6,0.3,1.9,1.9,1.9h43.4c1.4,0,1.7-0.3,1.8-1.8v-0.4L61.6,24.2z M59.3,25.3v18.4
		c-1.6,0.2-3.3,0.2-4.9,0V28.6C56.1,27.7,57.8,26.6,59.3,25.3L59.3,25.3z M51.6,29.8v14h-4.8c-0.2-2-0.2-10.3,0-12.3L51.6,29.8z
		 M44.3,32.3v11.5h-4.9V33.7l0.8-0.2C41.5,33.1,42.9,32.7,44.3,32.3L44.3,32.3z M36.8,34.4v9.4H32c-0.1-0.8-0.1-7.5,0-8.3L36.8,34.4
		z M29.3,36.1v7.7h-4.8c-0.1-0.8-0.1-6,0-6.7L29.3,36.1z M21.9,37.7v6H17v-4.4c0-0.2,0-0.4,0-0.7v-0.1L21.9,37.7z"/>
	<path class="st2" d="M32,23.5c1-0.9,2-1.8,3-2.6c0-0.4,0-0.8,0-1.1c0-1.1,0.8-2.1,1.9-2.3c1-0.3,2,0.1,2.6,1c0.3,0.8,1.1,1.3,2,1.2
		c0.4,0,0.8,0.1,1.2,0.2c1.5-1.5,1.9-1.6,3.9-0.9c1.1-0.8,2.2-1.7,3.5-2.7c-0.1-1.4,0-2.8,1.6-3.3c1.1-0.5,2.4-0.1,3,0.9
		c0.5-0.2,1-0.3,1.5-0.4c0.8,0,1.4-0.6,1.6-1.3c0.4-1,1.4-1.6,2.5-1.5c1,0.1,1.9,0.8,2.2,1.7c0.3,1,0,2.1-0.8,2.8
		c-0.9,0.6-2,0.7-2.9,0.2c-0.3-0.2-0.6-0.5-0.9-0.8c-0.5,0.1-0.9,0.3-1.4,0.4c-0.7,0.1-1.3,0.6-1.5,1.3c-0.4,1.2-1.8,1.9-3,1.5
		c0,0-0.1,0-0.1,0c-0.2-0.1-0.5-0.2-0.8-0.2c-1.2,0.9-2.3,1.8-3.4,2.7c0,2.2-0.5,3.1-1.9,3.4c-1.4,0.3-2.4-0.3-3.3-2.1
		c-0.8-0.2-1.6-0.3-2.5-0.5c-0.7,1.4-2.4,1.9-3.8,1.2c-0.1,0-0.1-0.1-0.2-0.1c-1,0.8-1.9,1.7-2.9,2.5v1.2c0,1.3-1,2.3-2.3,2.4
		c-1.3,0.2-2.5-0.8-2.7-2.1c-0.1-0.3,0-0.7-0.1-0.9c-0.1-0.1-0.2-0.2-0.4-0.3c-0.8-0.5-1.7-1-2.6-1.5c-0.9,0.6-2.1,0.8-3.1,0.3
		c-0.9,0.8-1.7,1.5-2.5,2.2c-0.7,0.5-1.1,1.3-0.9,2.2c0.1,1.3-0.8,2.4-2,2.6c-0.2,0-0.4,0-0.6,0c-1.4-0.1-2.5-1.3-2.4-2.7
		c0.1-1.4,1.3-2.5,2.7-2.4c0.1,0,0.2,0,0.3,0c0.3,0.1,0.6,0.1,0.9,0.3c1-0.9,2-1.9,3-2.9c0.3-0.3,0.5-0.8,0.3-1.3
		c-0.1-0.9,0.2-1.7,0.9-2.3c1.1-0.9,2.6-0.7,3.5,0.3c0.1,0.2,0.3,0.4,0.4,0.6c0.2,0.5,0.3,1.1,0.4,1.7c0.9,0.5,1.9,1.1,2.8,1.7
		C29.8,23.1,31,23,32,23.5"/>
	<path class="st5" d="M11.3,114.7c1,0,1.8,0.8,1.8,1.8s-0.8,1.8-1.8,1.8s-1.8-0.8-1.8-1.8S10.3,114.7,11.3,114.7"/>
	<path class="st6" d="M45.6,100.3c1,0,1.8,0.8,1.8,1.8s-0.8,1.8-1.8,1.8c-1,0-1.8-0.8-1.8-1.8S44.6,100.3,45.6,100.3"/>
	<path class="st7" d="M62.8,108.8c1,0,1.8,0.8,1.8,1.8s-0.8,1.8-1.8,1.8c-1,0-1.8-0.8-1.8-1.8S61.8,108.8,62.8,108.8"/>
	<path class="st6" d="M105.5,50c1,0,1.8,0.8,1.8,1.8s-0.8,1.8-1.8,1.8c-1,0-1.8-0.8-1.8-1.8S104.5,50,105.5,50"/>
	<path class="st7" d="M94,33.6c1,0,1.8,0.8,1.8,1.8S95,37.2,94,37.2c-1,0-1.8-0.8-1.8-1.8S93.1,33.6,94,33.6"/>
	<path class="st5" d="M118.1,12.7c1,0,1.8,0.8,1.8,1.8s-0.8,1.8-1.8,1.8c-1,0-1.8-0.8-1.8-1.8S117.1,12.7,118.1,12.7"/>
</g>
</svg>
