<?xml version="1.0" encoding="utf-8"?>
<!-- Generator: Adobe Illustrator 21.0.2, SVG Export Plug-In . SVG Version: 6.00 Build 0)  -->
<svg version="1.1" id="Слой_1" xmlns="http://www.w3.org/2000/svg" xmlns:xlink="http://www.w3.org/1999/xlink" x="0px" y="0px"
	 viewBox="0 0 132.8 126.6" style="enable-background:new 0 0 132.8 126.6;" xml:space="preserve">
<style type="text/css">
	.st0{clip-path:url(#SVGID_2_);fill:#F0F1F8;}
	.st1{clip-path:url(#SVGID_2_);fill:#2B265E;}
	.st2{clip-path:url(#SVGID_2_);fill:#E7E6E6;}
	.st3{clip-path:url(#SVGID_2_);fill:#8C94C9;}
	.st4{clip-path:url(#SVGID_2_);fill:#97D3F1;}
	.st5{clip-path:url(#SVGID_2_);fill:#FFFFFF;}
	.st6{clip-path:url(#SVGID_2_);fill:#13CE66;}
	.st7{clip-path:url(#SVGID_2_);}
	.st8{clip-path:url(#SVGID_2_);fill:#6F36FF;}
</style>
<g>
	<defs>
		<rect id="SVGID_1_" width="132.8" height="126.6"/>
	</defs>
	<clipPath id="SVGID_2_">
		<use xlink:href="#SVGID_1_"  style="overflow:visible;"/>
	</clipPath>
	<path class="st0" d="M69.5,0c35,0,63.3,28.3,63.3,63.3s-28.3,63.3-63.3,63.3S6.2,98.3,6.2,63.3S34.5,0,69.5,0"/>
	<path class="st1" d="M87.1,42.6c1,0.1,1.9-0.7,1.9-1.7c0-0.1,0-0.1,0-0.2c0.1-1-0.7-1.9-1.7-1.9c-0.1,0-0.1,0-0.2,0
		c-1-0.1-1.8,0.6-1.9,1.6c0,0.1,0,0.2,0,0.3c-0.1,0.9,0.6,1.8,1.5,1.9C86.9,42.6,87,42.6,87.1,42.6"/>
	<path class="st2" d="M1.8,92.4c1,0,1.8,0.8,1.8,1.8c0,1-0.8,1.8-1.8,1.8c-1,0-1.8-0.8-1.8-1.8C0,93.2,0.8,92.4,1.8,92.4"/>
	<path class="st3" d="M51.6,101.2c1,0,1.8,0.8,1.8,1.8c0,1-0.8,1.8-1.8,1.8c-1,0-1.8-0.8-1.8-1.8C49.8,102,50.6,101.2,51.6,101.2"/>
	<path class="st3" d="M49.8,73.8c1,0,1.8,0.8,1.8,1.8c0,1-0.8,1.8-1.8,1.8c-1,0-1.8-0.8-1.8-1.8C48,74.7,48.8,73.8,49.8,73.8"/>
	<path class="st2" d="M124.8,12.8c1,0,1.8,0.8,1.8,1.8c0,1-0.8,1.8-1.8,1.8c-1,0-1.8-0.8-1.8-1.8C123,13.6,123.8,12.8,124.8,12.8"/>
	<path class="st4" d="M74.7,59c1,0,1.8,0.8,1.8,1.8c0,1-0.8,1.8-1.8,1.8c-1,0-1.8-0.8-1.8-1.8C72.9,59.8,73.7,59,74.7,59"/>
	<path class="st5" d="M91.3,118.2c0.1,0.1,0.3,0,0.6,0c-9.5-6.3-14.3-14.9-13.3-26.1c1-11.2,7.2-18.6,17.3-23.3
		c-14.1,2.8-23.2,16.4-20.4,30.5c0.9,4.4,2.9,8.5,5.8,11.9c0.2,0.2,0.4,0.4,0.5,0.6c1.6,1.7,3.4,3.2,5.4,4.5
		c0.2,0.1,0.5,0.2,0.7,0.3C89,117.1,90.2,117.6,91.3,118.2"/>
	<path class="st6" d="M126.9,94.3c0-14.3-11.6-25.9-25.9-25.9c-1.7,0-3.4,0.2-5,0.5C85.8,73.5,79.6,81,78.6,92.1
		c-1,11.2,3.9,19.8,13.3,26.1c-0.3,0-0.5,0-0.6,0c-1.1-0.5-2.2-1.1-3.3-1.6c-0.2-0.1-0.4-0.2-0.7-0.3c12.2,7.6,28.1,3.9,35.7-8.3
		C125.5,103.9,126.9,99.1,126.9,94.3L126.9,94.3z"/>
	<path class="st7" d="M35,3.3C21.3,5.6,11,17.2,10.4,31.1c-0.2,4.8,0.7,9.6,2.7,13.9c0.1,0.4,0.4,0.7,0.6,1c0.5,0.6,1.3,0.8,2.1,0.5
		c0.8-0.3,1.2-1.1,1.1-1.9c-0.1-0.4-0.2-0.9-0.4-1.3c-2.2-4.7-2.9-9.9-2-15c2-10.7,8.3-17.5,18.6-20.8c0.7-0.2,1.5-0.3,2.3-0.5
		c-0.1,0-0.2,0.1-0.2,0.1c1.7-0.3,3.3-0.5,5-0.5c14.3-0.1,26,11.5,26.1,25.8c0.1,14.3-11.5,26-25.8,26.1c-0.1,0-0.2,0-0.3,0
		c-4.8,0-9.6-1.3-13.7-3.9c-0.9-0.4-1.9,0-2.3,0.8c-0.6,1-0.2,2,1.2,2.8c12.3,7,27.9,4.2,37-6.6c6.1-6.9,8.4-16.4,6.4-25.3
		C65.6,10.7,50.6,0.6,35,3.3"/>
	<path class="st7" d="M128.5,83.9c-0.3-1-0.7-2-1.2-2.9c-0.5-0.9-1.6-1.2-2.5-0.8c-0.9,0.4-1.3,1.4-0.9,2.2c0.2,0.5,0.4,1,0.6,1.5
		c5.7,13-0.3,28.2-13.3,33.9c-13,5.7-28.2-0.3-33.9-13.3c-1.4-3.3-2.2-6.8-2.1-10.4c0-1,0-2,0-3c0-0.6,0.1-1.2,0.3-1.8
		c2.3-12.8,13.9-21.8,26.8-21c3.1,0.1,6.1,0.8,8.9,2.1c0.9,0.4,1.8,1,2.8,1.4c0.9,0.5,2,0.2,2.5-0.7c0.2-0.4,0.3-0.8,0.2-1.2
		c-0.1-0.8-0.6-1.4-1.3-1.7c-14.2-8.1-32.3-3.1-40.3,11.1C67,93.9,72,111.9,86.2,120c5.6,3.2,12.1,4.4,18.4,3.6
		c6.8-0.7,13-3.9,17.6-8.9C130.3,105.7,132.3,95.4,128.5,83.9"/>
	<path class="st7" d="M54.9,102.4c-0.4-0.2-0.9-0.4-1.4-0.6C42.6,97.7,34,89.1,29.7,78.3c-0.1-0.3-0.3-0.6-0.4-0.9
		c-0.4-0.6-1.1-1-1.8-0.8c-0.7,0.1-1.3,0.6-1.5,1.2c-0.2,0.6-0.1,1.2,0.2,1.7c2.9,7.4,7.6,13.8,13.7,18.8c3.8,3.1,8,5.5,12.6,7.2
		c0.5,0.2,0.9,0.3,1.2,0.4c0.9,0.1,1.8-0.6,2-1.5C56,103.6,55.6,102.8,54.9,102.4"/>
	<path class="st7" d="M82.9,23.7c0.3,0.2,0.7,0.4,1.1,0.5c4.7,1.9,9,4.6,12.8,8.1c0.3,0.3,0.6,0.5,0.9,0.7c0.7,0.4,1.6,0.2,2.2-0.4
		c0.6-0.6,0.7-1.5,0.2-2.2c-0.3-0.4-0.6-0.7-0.9-1c-4.1-3.7-8.8-6.7-13.9-8.7c-0.4-0.2-0.9-0.3-1.1-0.3c-0.8,0-1.6,0.4-1.9,1.2
		C81.9,22.2,82.2,23.2,82.9,23.7"/>
	<path class="st7" d="M104,40.3c0.1,0.5,0.3,1.1,0.5,1.5c0.7,1.3,1.4,2.6,2.1,3.9c0.4,0.8,0.7,1.7,1,2.5c0.4,0.9,1.5,1.4,2.4,1
		c0,0,0,0,0.1,0c0.9-0.4,1.3-1.4,1-2.3c0,0,0,0,0,0c-0.9-2.6-2.2-5.1-3.6-7.5c-0.3-0.6-0.9-0.9-1.6-0.9c-0.9-0.1-1.8,0.6-1.9,1.5
		C104,40,104,40.2,104,40.3"/>
	<path class="st7" d="M102,37.5c1,0,1.9-0.8,2-1.8c0.1-1-0.7-1.9-1.8-2c-1-0.1-1.9,0.7-2,1.8c0,0,0,0.1,0,0.1
		C100.3,36.6,101,37.4,102,37.5"/>
	<path class="st7" d="M19.4,49.2c-1,0.1-1.8,1-1.8,2c0.1,1,0.9,1.7,1.9,1.8c1-0.1,1.8-0.9,1.9-2c0-0.3-0.1-0.6-0.3-0.9
		c-0.2-0.2-0.3-0.4-0.5-0.6C20.3,49.3,19.8,49.2,19.4,49.2"/>
	<path class="st7" d="M121.1,77.5c1.1,0,1.9-0.8,2-1.9c0-1.1-0.8-1.9-1.9-2c-1,0-1.9,0.8-2,1.8C119.3,76.6,120.1,77.4,121.1,77.5"/>
	<path class="st5" d="M30.5,56.6c0.1,0.1,0.3,0,0.6,0c-9.5-6.3-14.3-14.9-13.3-26.1c1-11.2,7.2-18.6,17.3-23.3
		C21.1,10,12,23.6,14.7,37.7c0.9,4.4,2.9,8.5,5.8,11.9c0.2,0.2,0.4,0.4,0.5,0.6c1.6,1.7,3.4,3.2,5.4,4.5c0.2,0.1,0.5,0.2,0.7,0.3
		C28.3,55.5,29.4,56,30.5,56.6"/>
	<path class="st8" d="M66.1,32.6c0-14.3-11.6-25.9-25.9-25.9c-1.7,0-3.4,0.2-5,0.5c-10.1,4.7-16.3,12.2-17.3,23.3
		c-1,11.2,3.9,19.8,13.3,26.1c-0.3,0-0.5,0-0.6,0c-1.1-0.5-2.2-1.1-3.4-1.6c-0.2-0.1-0.4-0.2-0.7-0.3c12.2,7.6,28.1,3.9,35.7-8.3
		C64.8,42.2,66.1,37.5,66.1,32.6L66.1,32.6z"/>
	<path class="st5" d="M20.6,49.6c0.2,0.2,0.3,0.4,0.5,0.6C21,49.9,20.8,49.7,20.6,49.6"/>
	<path class="st5" d="M44.5,31.5c-0.7-0.3-1.4-0.6-2.1-0.9c-0.2-0.1-0.4-0.2-0.6-0.2c-0.3-0.1-0.7-0.3-0.9-0.4v-5.5
		c0.6,0.1,1.2,0.3,1.8,0.5c0.7,0.3,1.4,0.8,2.1,1.2c0.2,0.1,0.4,0.2,0.6,0.2c0.6,0.1,1.3-0.1,1.6-0.7c0.5-0.6,0.5-1.5-0.1-2
		c0,0-0.1-0.1-0.1-0.1c-0.6-0.6-1.3-1.1-2.1-1.4c-1.2-0.5-2.4-0.8-3.9-1.2v-0.3c0-0.4,0-0.8,0-1.1c0-0.7-0.6-1.2-1.2-1.2
		c-0.7,0-1.2,0.6-1.2,1.2v0c-0.1,0.5-0.1,1-0.1,1.5c-0.8,0.2-1.4,0.3-2.1,0.5c-1.4,0.4-2.6,1.2-3.4,2.4c-1.4,2-1.4,4.7,0.1,6.6
		c0.4,0.6,1,1.1,1.7,1.5c0.7,0.3,1.4,0.6,2.1,0.9c0.2,0.1,0.4,0.2,0.6,0.2c0.3,0.1,0.7,0.3,0.9,0.4v5.5c-0.6-0.1-1.2-0.3-1.8-0.5
		c-0.7-0.3-1.4-0.8-2.1-1.2c-0.2-0.1-0.4-0.2-0.6-0.2c-0.6-0.1-1.3,0.1-1.6,0.7c-0.5,0.6-0.5,1.5,0.1,2c0,0,0.1,0.1,0.1,0.1
		c0.6,0.6,1.3,1.1,2.1,1.4c1.2,0.5,2.4,0.8,3.9,1.2v0.3c0,0.4,0,0.8,0,1.1c0,0.7,0.6,1.2,1.2,1.2c0.7,0,1.2-0.6,1.2-1.2c0,0,0,0,0,0
		c0.1-0.5,0.1-1,0.1-1.5c0.8-0.2,1.4-0.3,2.1-0.5c1.4-0.4,2.6-1.2,3.4-2.4c1.4-2,1.4-4.7-0.1-6.6C45.8,32.4,45.2,31.9,44.5,31.5
		 M43.7,36.5c0,1.3-1.1,2.3-2.8,2.5v-4.5h0c0.5,0,0.9,0.1,1.3,0.3C43,35,43.6,35.7,43.7,36.5L43.7,36.5z M35.5,27.1
		c0-1.3,1.1-2.3,2.8-2.5v4.5h0c-0.5,0-0.9-0.1-1.3-0.3C36.1,28.6,35.6,27.9,35.5,27.1L35.5,27.1z"/>
	<path class="st5" d="M97.3,90.5h7.1c0.5,0,0.9,0.2,1.2,0.5c0.4,0.4,0.5,1,0.2,1.5c-0.2,0.5-0.7,0.9-1.3,0.9h-8.1v1.1
		c0.2,0,0.4,0,0.6,0h7.1c0.3,0,0.7,0.1,1,0.2c0.6,0.3,0.9,0.9,0.8,1.6c-0.2,0.6-0.8,1.1-1.4,1.1h-7.2c1.4,2.9,4.4,4.5,7.6,4.2
		c0.9-0.1,1.7-0.3,2.5-0.7c0.3-0.1,0.5-0.2,0.8-0.3c0.7-0.1,1.3,0.3,1.5,0.9c0.2,0.7-0.1,1.4-0.8,1.7c-1.1,0.5-2.2,0.9-3.4,1.1
		c-2,0.3-4.1,0-5.9-0.9c-2.4-1.1-4.3-3.2-5.3-5.7c-0.1-0.2-0.1-0.3-0.2-0.5h-1.1c-0.5,0-0.9,0-1.4,0c-0.7,0-1.4-0.6-1.5-1.3
		c-0.1-0.8,0.5-1.5,1.3-1.5c0,0,0,0,0.1,0c0.5,0,1-0.1,1.5,0h0.7v-1.1h-2.1c-0.7-0.1-1.3-0.6-1.3-1.4c0-0.7,0.5-1.4,1.3-1.5
		c0.8,0,1.5,0,2.3,0H94c0.1-0.2,0.1-0.3,0.2-0.4c2.1-5.4,8.2-8.1,13.7-6c0.3,0.1,0.7,0.3,1,0.5c0.7,0.3,1,1.2,0.7,1.9
		c-0.3,0.7-1.2,1-1.9,0.7c-0.5-0.2-0.9-0.4-1.5-0.6c-3-0.9-6.2,0.1-8.2,2.5C97.8,89.5,97.5,90,97.3,90.5"/>
</g>
</svg>
